<svg width="116" height="35" fill="none" xmlns="http://www.w3.org/2000/svg"><path d="M75 29l9.5 3 8-8 10 7 10.5-2-4.5-14.5-16 5-9-5L74 16l1 13z" fill="#F1A501"/><path d="M.92 24.064v-2.162l6.118-1.104v2.99c.03 1.625.445 2.852 1.242 3.68.828.797 1.917 1.196 3.266 1.196 1.319 0 2.361-.43 3.128-1.288.797-.859 1.196-2.009 1.196-3.45V1.386h6.348v22.54c0 3.005-.997 5.55-2.99 7.636-1.993 2.085-4.539 3.128-7.636 3.128-3.22 0-5.811-.966-7.774-2.898C1.886 29.829.92 27.253.92 24.064zm22.757 3.772c0-1.932.628-3.48 1.886-4.646 1.257-1.165 2.882-1.901 4.876-2.208l5.566-.828c1.134-.153 1.702-.69 1.702-1.61 0-.859-.338-1.564-1.012-2.116-.644-.552-1.58-.828-2.806-.828-1.288 0-2.316.353-3.082 1.058-.736.705-1.15 1.58-1.242 2.622l-5.428-1.15c.214-1.963 1.18-3.695 2.898-5.198 1.717-1.503 3.986-2.254 6.808-2.254 3.373 0 5.857.813 7.452 2.438 1.594 1.595 2.392 3.65 2.392 6.164v11.132c0 1.35.092 2.545.276 3.588H38.35c-.154-.675-.23-1.58-.23-2.714-1.442 2.239-3.665 3.358-6.67 3.358-2.331 0-4.217-.675-5.658-2.024-1.411-1.35-2.116-2.944-2.116-4.784zm9.062 2.254c1.441 0 2.622-.399 3.542-1.196.95-.828 1.426-2.177 1.426-4.048v-1.012l-5.106.782c-1.871.276-2.806 1.227-2.806 2.852 0 .736.26 1.365.782 1.886.521.49 1.242.736 2.162.736zM67.658.696v29.21c0 1.503.061 2.867.184 4.094H62c-.154-.767-.23-1.64-.23-2.622-.522.95-1.35 1.717-2.484 2.3-1.104.583-2.392.874-3.864.874-3.22 0-5.873-1.12-7.958-3.358-2.055-2.27-3.082-5.121-3.082-8.556 0-3.343 1.012-6.149 3.036-8.418 2.054-2.27 4.661-3.404 7.82-3.404 3.25 0 5.382.935 6.394 2.806V.696h6.026zM50.546 22.638c0 1.993.521 3.573 1.564 4.738 1.042 1.135 2.392 1.702 4.048 1.702 1.625 0 2.959-.583 4.002-1.748 1.042-1.165 1.564-2.745 1.564-4.738 0-1.963-.522-3.496-1.564-4.6-1.043-1.135-2.377-1.702-4.002-1.702-1.626 0-2.975.567-4.048 1.702-1.043 1.135-1.564 2.683-1.564 4.646zm26.141 4.784c1.134 1.135 2.499 1.702 4.094 1.702 1.594 0 2.944-.567 4.048-1.702 1.134-1.135 1.702-2.714 1.702-4.738 0-2.024-.568-3.603-1.702-4.738-1.104-1.135-2.454-1.702-4.048-1.702-1.595 0-2.96.567-4.094 1.702-1.104 1.135-1.656 2.714-1.656 4.738 0 2.024.552 3.603 1.656 4.738zm-4.416-13.34c2.269-2.27 5.106-3.404 8.51-3.404s6.225 1.135 8.464 3.404c2.269 2.27 3.404 5.137 3.404 8.602 0 3.465-1.135 6.333-3.404 8.602-2.24 2.27-5.06 3.404-8.464 3.404-3.404 0-6.241-1.135-8.51-3.404-2.24-2.27-3.358-5.137-3.358-8.602 0-3.465 1.119-6.333 3.358-8.602z" fill="#000"/><path d="M99.87 27.422c1.135 1.135 2.499 1.702 4.094 1.702 1.595 0 2.944-.567 4.048-1.702 1.135-1.135 1.702-2.714 1.702-4.738 0-2.024-.567-3.603-1.702-4.738-1.104-1.135-2.453-1.702-4.048-1.702-1.595 0-2.959.567-4.094 1.702-1.104 1.135-1.656 2.714-1.656 4.738 0 2.024.552 3.603 1.656 4.738zm-4.416-13.34c2.27-2.27 5.106-3.404 8.51-3.404s6.225 1.135 8.464 3.404c2.269 2.27 3.404 5.137 3.404 8.602 0 3.465-1.135 6.333-3.404 8.602-2.239 2.27-5.06 3.404-8.464 3.404-3.404 0-6.24-1.135-8.51-3.404-2.239-2.27-3.358-5.137-3.358-8.602 0-3.465 1.12-6.333 3.358-8.602z" fill="#000"/></svg>