<svg width="100" height="35" fill="none" xmlns="http://www.w3.org/2000/svg"><rect width="100" height="35" rx="17.5" fill="#080809"/><path d="M21.79 24c-2.382-.014-4.352-4.875-4.352-7.35 0-4.044 3.034-4.93 4.203-4.93.527 0 1.09.207 1.586.39.347.128.706.26.905.26.12 0 .401-.112.65-.21.53-.212 1.19-.474 1.957-.474h.005c.574 0 2.313.126 3.358 1.696l.245.368-.352.266c-.504.38-1.423 1.073-1.423 2.446 0 1.626 1.04 2.251 1.54 2.552.221.133.45.27.45.569 0 .195-1.56 4.393-3.826 4.393-.554 0-.946-.167-1.291-.314-.35-.149-.652-.277-1.15-.277-.253 0-.573.12-.91.246-.463.173-.987.369-1.58.369h-.016zm5.19-16c.058 2.127-1.463 3.603-2.983 3.51C23.747 9.814 25.517 8 26.98 8zm12.05 5h1.05l-1.428-4.2h-1.224L36 13h1.05l.21-.66h1.56l.21.66zm-1.482-1.56l.492-1.542.492 1.542h-.984zM42.205 10l-.624 1.902L40.957 10h-.996l1.11 3h1.02l1.11-3h-.996zm3.387 0v.282c-.198-.228-.492-.366-.894-.366-.786 0-1.434.69-1.434 1.584 0 .894.648 1.584 1.434 1.584.402 0 .696-.138.894-.366V13h.9v-3h-.9zm-.714 2.232c-.414 0-.714-.282-.714-.732s.3-.732.714-.732.714.282.714.732-.3.732-.714.732zm2.274.768h.9V8.62h-.9V13zm2.008-3.264c.295 0 .54-.246.54-.54a.546.546 0 00-.54-.54.546.546 0 00-.54.54c0 .294.247.54.54.54zM48.71 13h.9v-3h-.9v3zm3.353-3.084c-.402 0-.696.138-.894.366V8.8h-.9V13h.9v-.282c.199.228.492.366.895.366.785 0 1.434-.69 1.434-1.584 0-.894-.648-1.584-1.434-1.584zm-.18 2.316c-.414 0-.714-.282-.714-.732s.3-.732.715-.732c.413 0 .713.282.713.732s-.3.732-.714.732zm2.125.768h.9V8.62h-.9V13zm2.362-1.14h2.13c.024-.114.036-.234.036-.36 0-.906-.648-1.584-1.524-1.584-.948 0-1.596.69-1.596 1.584 0 .894.636 1.584 1.662 1.584.57 0 1.014-.21 1.308-.618l-.72-.414a.783.783 0 01-.576.228c-.33 0-.606-.108-.72-.42zm-.018-.672c.084-.306.312-.474.654-.474.27 0 .54.126.636.474h-1.29zm5.635 1.896c.882 0 1.59-.69 1.59-1.584 0-.894-.708-1.584-1.59-1.584-.882 0-1.59.69-1.59 1.584 0 .894.708 1.584 1.59 1.584zm0-.876c-.39 0-.69-.282-.69-.708s.3-.708.69-.708c.39 0 .69.282.69.708s-.3.708-.69.708zm3.857-2.292c-.396 0-.696.144-.858.366V10h-.9v3h.9v-1.638c0-.426.228-.618.558-.618.288 0 .522.174.522.546V13h.9v-1.842c0-.81-.516-1.242-1.122-1.242zm4.998.948V10h-.618v-.84l-.9.27V10h-.48v.864h.48v1.062c0 .84.342 1.194 1.518 1.074v-.816c-.396.024-.618 0-.618-.258v-1.062h.618zm2.268-.948c-.397 0-.697.144-.859.366V8.8h-.9V13h.9v-1.638c0-.426.228-.618.558-.618.288 0 .523.174.523.546V13h.9v-1.842c0-.81-.516-1.242-1.123-1.242zm2.543 1.944h2.13c.025-.114.037-.234.037-.36 0-.906-.648-1.584-1.524-1.584-.949 0-1.597.69-1.597 1.584 0 .894.636 1.584 1.663 1.584.57 0 1.014-.21 1.308-.618l-.72-.414a.783.783 0 01-.576.228c-.33 0-.606-.108-.72-.42zm-.018-.672c.084-.306.313-.474.654-.474.27 0 .54.126.636.474h-1.29zM41.05 24h1.75l-2.38-7h-2.04L36 24h1.75l.35-1.1h2.6l.35 1.1zm-2.47-2.6l.82-2.57.82 2.57h-1.64zm7.757-2.54c-.67 0-1.16.23-1.49.61V19h-1.5v7h1.5v-2.47c.33.38.82.61 1.49.61 1.31 0 2.39-1.15 2.39-2.64 0-1.49-1.08-2.64-2.39-2.64zm-.3 3.86c-.69 0-1.19-.47-1.19-1.22s.5-1.22 1.19-1.22 1.19.47 1.19 1.22-.5 1.22-1.19 1.22zm6.53-3.86c-.67 0-1.16.23-1.49.61V19h-1.5v7h1.5v-2.47c.33.38.82.61 1.49.61 1.31 0 2.39-1.15 2.39-2.64 0-1.49-1.08-2.64-2.39-2.64zm-.3 3.86c-.69 0-1.19-.47-1.19-1.22s.5-1.22 1.19-1.22 1.19.47 1.19 1.22-.5 1.22-1.19 1.22zM55.808 24h1.5v-7.3h-1.5V24zm3.937-1.9h3.55c.04-.19.06-.39.06-.6 0-1.51-1.08-2.64-2.54-2.64-1.58 0-2.66 1.15-2.66 2.64 0 1.49 1.06 2.64 2.77 2.64.95 0 1.69-.35 2.18-1.03l-1.2-.69c-.2.22-.55.38-.96.38-.55 0-1.01-.18-1.2-.7zm-.03-1.12c.14-.51.52-.79 1.09-.79.45 0 .9.21 1.06.79h-2.15zm9.491 3.16c1.52 0 2.6-.8 2.6-2.15 0-1.48-1.19-1.85-2.25-2.17-1.09-.33-1.26-.55-1.26-.87 0-.28.25-.53.75-.53.64 0 .97.31 1.21.81l1.35-.79c-.51-1.03-1.41-1.58-2.56-1.58-1.21 0-2.35.78-2.35 2.13 0 1.34 1.02 1.84 2.06 2.13 1.05.29 1.45.46 1.45.89 0 .27-.19.57-.95.57-.79 0-1.22-.39-1.47-.97l-1.38.8c.39 1.03 1.33 1.73 2.8 1.73zm6.134-3.7V19h-1.03v-1.4l-1.5.45V19h-.8v1.44h.8v1.77c0 1.4.57 1.99 2.53 1.79v-1.36c-.66.04-1.03 0-1.03-.43v-1.77h1.03zm3.151 3.7c1.47 0 2.65-1.15 2.65-2.64 0-1.49-1.18-2.64-2.65-2.64s-2.65 1.15-2.65 2.64c0 1.49 1.18 2.64 2.65 2.64zm0-1.46c-.65 0-1.15-.47-1.15-1.18s.5-1.18 1.15-1.18c.65 0 1.15.47 1.15 1.18s-.5 1.18-1.15 1.18zm4.999-2.79V19h-1.5v5h1.5v-2.26c0-.99.88-1.24 1.5-1.14v-1.7c-.63 0-1.3.32-1.5.99zm3.394 2.21h3.55c.04-.19.06-.39.06-.6 0-1.51-1.08-2.64-2.54-2.64-1.58 0-2.66 1.15-2.66 2.64 0 1.49 1.06 2.64 2.77 2.64.95 0 1.69-.35 2.18-1.03l-1.2-.69c-.2.22-.55.38-.96.38-.55 0-1.01-.18-1.2-.7zm-.03-1.12c.14-.51.52-.79 1.09-.79.45 0 .9.21 1.06.79h-2.15z" fill="#fff"/></svg>