<svg width="385" height="12" fill="none" xmlns="http://www.w3.org/2000/svg"><mask id="a" style="mask-type:alpha" maskUnits="userSpaceOnUse" x="0" y="0" width="385" height="12"><path fill="#C4C4C4" d="M0 0h385v12H0z"/></mask><g mask="url(#a)"><path d="M57.828-2.538l.941-.158-1.83-.227.877-.166c.88.002 2.02.25 2.641.118.076-.128-.883-.169-1.127-.27a3.173 3.173 0 01-.528-.311c.48.001 1.006.026 1.55.072.73.077 1.447.114 2.071.108 1.276.02 2.508 0 3.894.004l-.46-.308 1.786.072c.19.024.415-.014.602.015 1.548.246 2.204.112 2.947 0 .153-.028.336-.05.546-.063 2.067.059 3.93.403 5.79.58.35.045.686.103.984.17a21.9 21.9 0 002.094.307 20.4 20.4 0 002.066.106 44.287 44.287 0 014.564.249c.475.055.951.09 1.398.106.446.015.852.009 1.193-.018l1.082.176a12.52 12.52 0 011.747-.115 26.05 26.05 0 012.233.088c.84.068 1.694.114 2.567.187 1.801.138 3.555.222 5.205.25 2.458.084 4.86.148 7.34.252 1.551.05 3.063.078 4.526.083a76.63 76.63 0 015.594.281c-.092.156-.946.11-1.519.104-1.848-.025-3.74-.093-5.642-.143-.857-.02-1.69-.027-2.494-.022a90.704 90.704 0 01-4.231-.124c-2.317-.083-4.56-.124-6.706-.12a6.146 6.146 0 00-.46.033c-.029.013-.034.03-.017.049a.313.313 0 00.12.058c.06.02.136.038.223.053.086.015.18.026.271.033.852.106 1.768.219 2.572.235a1.174 1.174 0 01.189.023c1.8.223 3.279.186 4.681.222 2.327.098 4.571.144 6.697.136.321 0 .668.014 1.028.038 2.226.1 4.308.11 6.148.033.757-.02 1.461-.064 2.275-.065a9.325 9.325 0 001.282-.082c.345-.052.592-.126.726-.218.343.048.692.091 1.041.129.209.021.41.027.561.016.151-.012.242-.039.255-.077.062-.105-.415-.158-.828-.204.249-.022.53-.036.837-.04a99.607 99.607 0 015.507.086c1.501.096 2.7.018 4.28.154.19.023.345-.011.52-.02a12.653 12.653 0 011.65-.028c.629.025 1.301.083 1.959.17.819-.238 2.589.035 3.896.06.403.12-.059.1-.079.133-.02.033 0 0-.158-.02-1.305.172-3.093.21-5.112.108-.374 0-.73.008-1.065.023a20.32 20.32 0 01-1.69-.006 19.079 19.079 0 00-1.812.026 4.31 4.31 0 00-.75.053c-.186.035-.296.087-.319.15.204.047.429.091.668.13 1.248.15 2.493.213 3.489.175 1.733-.066 3.796-.002 5.639-.024a77.32 77.32 0 013.953.077l-.04.067c.164.027.335.048.506.063l.016-.028a1.933 1.933 0 00-.296-.073l-.41-.05c.279-.014.539-.053.83-.029.612.045 1.198.064 1.721.055a9.002 9.002 0 001.323-.102 17.58 17.58 0 012.263-.102 60.592 60.592 0 001.929-.054s.04-.066.332-.102a13.08 13.08 0 00-.852-.105 237.163 237.163 0 00-3.729-.17c-.452-.004-.877.003-1.267.023-1.08.022-2.294-.01-3.57-.096l-.378-.047c.358-.147 1.592 0 2.092-.1.303.003.838.015.82-.011-.042-.035-.047-.067-.015-.095a.438.438 0 01.2-.065c.1-.015.228-.023.377-.022.148 0 .312.009.48.024 1.405.086 2.729.11 3.89.07.44 0 .933.026 1.37.032.267.008.512.004.719-.012 1.055-.117 2.475-.125 4.047-.024.76.036 1.469.04 2.093.014.443-.005.631.078.947.117l1.34.083-1.721.103c.368.237.66.315 1.261.33.878.022 1.732.032 2.558.03.611-.002 1.116-.053 1.943.037.146.015.287.02.399.014.969-.08 2.136-.1 3.421-.054.665-.15 1.798-.005 2.847.113.338-.113-.275-.165-.641-.234.877.007 1.761.003 2.666.02.272-.007.583.004.909.03.326.025.657.066.968.118.151.034.334.06.51.071.176.012.332.01.435-.007.47-.05 1.222-.004 1.611-.088.138-.019.335-.022.556-.007.221.014.452.044.651.085a5.697 5.697 0 00-.577.06c-.595.088-.376.234.379.447 1.159-.012 2.343-.008 3.417-.048a16.499 16.499 0 012.119.032 22.58 22.58 0 012.331.292c.267.051.572.087.853.1.281.012.519.001.666-.032.091-.037.119-.085.082-.139l-.758-.093.037-.062 1.089-.008c.576 0 1.177.014 1.722.01.8-.028 1.714-.012 2.684.046.895.06 1.775.105 2.631.135.829.03 1.43-.068 2.218-.084.597-.012 1.253 0 1.944.038 1.193.065 2.288.065 3.185 0 1.046.35 1.554.408 2.525.313l.457-.027.125.075.349-.017c.652-.014 1.305-.029 1.986-.034.946.032 1.969.12 2.967.254.189.023.447.103.613.165.167.063.529.251.796.374-.291.09-.612.175-.843.277-.023.018-.021.039.007.062a.483.483 0 00.151.069c.073.023.163.044.264.062.102.019.211.033.32.043.212.02.422.034.62.04.975.011 1.909.003 2.793-.024a7.31 7.31 0 011.255-.01c.491.032 1.003.096 1.454.185 1.156-.053 2.5-.038 3.938.045 1.521-.05 3.358.052 4.779-.059-.033.056.114.152.318.207.324.084.69.161 1.084.23l3.005.133c.112.069.252.138.419.207.114.055.313.109.554.15.242.04.507.066.739.07.598.02 1.099-.025 1.812.087-1.098.106-2.578.092-4.178-.04a63.67 63.67 0 00-4.284-.148c-.44 0-1.02.005-1.157.066-.305.171-1.102.144-2.032.112a16.226 16.226 0 00-1.948.012c-.549.042-.964.12-1.212.23-.062.106.088.196.729.258l2.667.246a29.9 29.9 0 001.117-.112 16.944 16.944 0 012.135-.046c.812.027 1.685.096 2.55.202.442.055.884.11 1.205.083.281-.03.54-.065.775-.107.047-.027.066-.06.056-.094.17.016.34.037.505.062 1.316.295 2.336.29 3.262.213.251-.022.442-.058.696-.087.254-.028.343-.065.574-.054 1.841.097 2.371-.226 3.922-.213.075-.013.122-.031.136-.055.014-.023-.006-.05-.057-.078a4.065 4.065 0 00-.758-.094c-.714-.042-1.344-.029-1.783.036-.311.026-.641.047-.986.063l-1.554-.467a69.33 69.33 0 004.237-.001c.285-.025.769.017 1.171.025l2.956.044c.608.004 1.126-.07 1.973.101 0 0 .56.028.709.004.15-.023.812-.168 1.207-.262.458.026 1.093.1 1.378.075.499-.06.931-.137 1.288-.229l1.786.132c-.002.117-.067.227-.195.328-.139.098-.134.215.014.342.149.128.436.261.84.39l1.763.685c.288.046.595.077.879.088.284.012.531.004.709-.023.759-.08 1.609-.141 2.367-.22.979.12.727.317 1.439.488l2.304.286c.352.264.71.518-.359.606-.212.016-.069.117-.263.159.831.198 1.745.258 2.587.38.332.088.61.181.82.275.231.14.698.285 1.301.401.604.116 1.294.195 1.923.219a49.81 49.81 0 013.194.33c.361.05.732.086 1.088.107.356.02.689.024.976.011 1.023-.022 1.889-.1 2.542-.228.645-.11 1.515-.162 2.53-.153 1.737.215 2.087.54 3.138.825l-1.815.032c-.066.11.054.251-.69.249-.744-.003-.367.104-.126.211.085.054.251.11.47.157.219.048.477.085.731.105l1.545.138c.548.052 1.078.074 1.532.064.454-.01.815-.052 1.043-.122.262-.066.623-.11 1.061-.13.558-.055 1.017-.135 1.36-.238l2.182.15c.092-.104.392-.177.848-.206a10.89 10.89 0 011.654.044l1.47.093c1.634.1 1.993.068 2.472-.226l-1.961-.523c.285-.138.56-.26.836-.38-.489-.173-1.14-.336-1.889-.473a96.307 96.307 0 00-2.152-.428c-.798-.14-1.641-.263-2.631-.421-.173-.052-.424-.142-.745-.23a35.32 35.32 0 00-1.004-.25c.066-.11.125-.211-.002-.34.61.041 1.24.113 1.834.21.594.096 1.132.214 1.566.342.073.023.163.044.263.063.1.019.208.034.318.045 1.071.079 1.583.244 2.107.446.353.103.808.195 1.302.263.947.117 1.874.268 2.78.398.277.043.565.079.852.105a41.01 41.01 0 012.81.348c.297.037.582.086.831.143.25.057.456.12.602.184-.226.07-.347.159-.358.26-.039.067.626.203.94.302.314.099-.302.052-.511.062-.859.02-1.018.06-.504.278.172.069.286.138.335.202.049.065.032.124-.049.174-.122.206-.494.375-.749.576.396.133 1.058.274 1.13.439a.598.598 0 00.214.113c.107.037.244.074.401.106.416.07.794.153 1.105.243.31.09.546.185.688.278.046.038.158.079.314.113a3.654 3.654 0 001.066.068c.131-.019.189-.054.163-.098a.397.397 0 00-.086-.255c.036-.061.073-.123-.071-.224a19.54 19.54 0 011.965.214 12.2 12.2 0 011.653.372c.491.144.943.295 1.487.464-.112.19-.112.19 1.045.524l6.139.163 1.258.222c1.173.193 1.452.18 2.189.08l.496-.094c1.042.129 2.242.277 2.893.036.212.157.35.21.302.234-.311.233-.852.43-1.6.584-.191.036-.325.091-.548.123-.717.182-.883.463-.465.785.208.143.51.289.896.433-.565.201-1.313.368-2.225.495-.774.099-1.411.23-1.893.393-.433.163-1.082.285-1.908.36-.42.033-.726.096-.888.183-.048.238.063.492.33.758.051.08.194.168.419.255.225.087.525.17.877.246 0 0 .17.057.251.09.068.288-.186.542-.745.744-.092.058-.28.1-.543.12a7.159 7.159 0 01-.952 0c-.759-.034-1.468-.039-2.202-.058-.791-.027-1.488-.006-2.017.062-.529.068-.871.18-.99.324a.221.221 0 01-.07.117.094.094 0 00-.036.061l1.686.472-1.907.187c-.112.19.803.303 1.262.443l-.284.079c-.365.044-.857-.04-1.302-.09l-.442-.055-.053.09c-.275.12-1.278-.016-1.67.073-.391.089-.112.19.475.286a14.88 14.88 0 002.512.221c.224-.01.409-.03.546-.063a38.035 38.035 0 012.617-.357c.729-.089 1.642-.127 2.675-.11.303-.007.668.014 1.032.059s.703.111.957.187l.535.012s.292.078.251.091c-.204.231.033.514.674.806l-.558.027c-.797-.027-.291.149-.411.235-.566-.016-1.302-.09-1.57.02l-.402-.007.157.02.191-.037.75.165c-.355.027-.613.061-.926.076a1.774 1.774 0 00-.406.067c-.094.032-.143.071-.143.116.001.069-.093.127-.272.169a3.72 3.72 0 01-.75.069c-.374.001-.588.076-.807.103l.952.452s-.474-.059-.216.021l.033-.055.577.113c.416.1.706.123.952.052.245-.071.189.023.307-.004-.043.073-.31.123-.539.166-.265.034-.564.06-.891.075.59.318.619.328-.244.412-.864.084-.566.21-1.288.229-.723.018.099.233.582.275.359.027.724.07 1.071.126.348.055.669.122.942.195l-.145.244a10.59 10.59 0 01-.632-.078c-.7-.134-1.336-.26-1.959-.183l.297.186-2.173-.108c.056.14.388.299.924.443a.496.496 0 00-.149.25c-.036.062-.25.023-.39.03-.497.01-.906.052-1.189.12-.283.07-.432.164-.435.276-.056.095.709.29 1.187.284 1.194.02 2.486.092 3.804.215.804.016.917-.233 2.24-.063.026.115-.143.208-.483.265-.339.057-.83.075-1.399.051.324.255 2.114.322 2.193.588a14.326 14.326 0 01-1.383-.128 10.76 10.76 0 01-1.242-.245 2.255 2.255 0 00-.279-.062 3.54 3.54 0 00-.33-.039 2.627 2.627 0 00-.301-.005.743.743 0 00-.197.029c.248.096.521.208.832.312.311.104.386.15.61.171 1.673.207 2.469.58 3.916.826.379.047.426.196.098.179a5.757 5.757 0 00-.818.006c-.222.021-.374.06-.439.113a6.33 6.33 0 01-.9.145c1.485.383 3.255.722 5.145.984.357.052.731.083 1.064.09 1.055 0 2.174.03 3.336.09.411.017.792.015 1.12-.004 1.078-.046 1.934.054 2.716.336l1.293.447c-.042.072-.26.153-.427.264l1.011.238 7.713-.55 1.548.533 2.221-.03c.17.016.341.037.505.063.449.157.8.308 1.287.458.487.15 1.358.168 1.965.345.607.176 1.214.18 1.965.285.071.137-.002.26-.214.362-.069.117-.451.189-.517.3.008.112-.134.208-.412.278-.278.07-.684.111-1.18.122-1.39.24-3.066.41-4.977.506a2.243 2.243 0 00-.409.048c-.102.024-.164.056-.183.094.003.109-.125.203-.373.276-.248.072-.611.121-1.062.143a.822.822 0 00-.26.04c-.171.014-.296.04-.362.076s-.071.082-.015.131c.055.05.171.102.334.152s.369.096.598.133c.332.061.671.119 1.015.174-.019.034-.361.039-.312.069.136.096.167.186.092.263-.075.076-.254.138-.523.18l1.843.777c1.119.108 2.217.29 3.085.513.001.037-.049.067-.145.09a2.016 2.016 0 01-.403.034c-.45.016-.875.047-1.36.064a4.09 4.09 0 00-.725.085c-.183.043-.297.1-.338.166l1.082.289c-.346.07-.604.104-.833.148.13.09.353.184.653.274.299.09.666.174 1.073.244.11.014.221.025.328.031.107.006.207.008.295.004.839-.099 1.819.076 2.771.242.953.166 1.47.265 2.173.394l1.345.018c.34.06.644.132.887.21.243.076.418.155.511.232-.072.122-.71.055-1.09.068-.902.076-2.088.06-3.362-.047-.315-.039-.639-.007-.946-.003-.663.015-1.3.04-1.908.074-.401.032-.775.071-1.121.118-.092.156 1.362.276.537.353.284.035.39.084.536.067.936.1 1.858.15 2.66.144 1.538-.022 3.284.05 5.096.207 1.955.163 3.831.232 5.472.2a21.99 21.99 0 012.044.098c.849.092 1.692.15 2.475.169a9.507 9.507 0 011.696.168c-.023.04-.277.068-.22.086.81.292 1.138.595 2.385.893.852.106 1.831.227 2.388.087.558-.14.358-.26-.751-.619.24-.005.53.012.819.047.288.036.557.089.759.149l.96.268.864.256-.198.334c-.099.112.01.249.311.39.181.078.34.156.473.233.54.307.697.597.452.838-.47.346-1.124.665-1.954.952-.877.28-1.358.632-2.08.937a9.167 9.167 0 01-1.339.372c-.99.241-2.075.471-3.069.718-.994.248-2.116.425-3.219.629-1.643.242-3.419.45-5.318.625-1.175.153-2.382.302-3.469.478-1.284.199-2.792.341-4.487.424-1.497.1-2.835.246-3.987.438a1.16 1.16 0 00-.284.078c-.207.196-.789.333-1.655.392.052.058.12.116.201.175.121.07.146.135.072.188-.073.053-.242.09-.484.107-.693.048-1.269.13-1.703.243-.159.028-.258.07-.288.12-.029.05.01.108.117.17.094.062.101.12.02.165-.082.046-.247.076-.476.088a40.27 40.27 0 01-1.881.144c-1.417.079-3.064.078-4.844-.003-.189-.024-.38.012-.601-.015-1.259-.09-2.427-.105-3.365-.04-1.099.025-2.248.02-3.408.031a58.838 58.838 0 00-4.591.142c-1.568-.098-2.449.073-3.773.077a74.04 74.04 0 00-3.463.126c-1.747.088-3.487.165-5.209.269a62.15 62.15 0 00-4.436.28c-.511.062-1.436-.034-1.785.096-.348.13-1.05.114-1.618.158l-1.792.106c-.308.026-.646.042-1.011.048-1.665.009-2.819.182-4.365.218l-.158-.02c-2.745.258-5.886.4-9.331.421-2.012.08-4.213.076-6.348.134-.51.116-1.712-.027-2.351.079s-1.683.036-2.506.054c-.824.017-1.629.06-2.509.06-.765 0-1.41.047-1.878.137-1.068.148-2.369.236-3.846.258-1.955.039-3.803.126-5.791.107.029.108-.093.2-.353.267-.26.066-.648.105-1.125.111-2.125.042-4.053.15-6.207.181h-.576l-6.442.063c-1.735.011-3.407.031-5.177.045-.663-.082-.679.06-1.138.032-.128-.07-.279-.1-.505-.062l-.05.083-7.351.11c-2.878.082-5.906.106-9.057.074-.748.008-1.445.035-2.082.082a57.84 57.84 0 01-1.843.023c-.862-.021-1.704-.032-2.523-.032-2.154.032-4.414.014-6.773-.009-2.358-.023-4.145.018-6.244.015a210.374 210.374 0 01-4.308-.05c-.702-.015-1.568-.098-2.295-.129-.728-.03-.965-.03-1.061.018-.317.134-1.113.047-1.749.034-1.241-.022-1.417-.068-1.754-.414l1.522-.11a9.95 9.95 0 011.363-.018c.52.023 1.074.076 1.607.153a8.503 8.503 0 001.261.102c1.536-.018 3.051-.058 4.527-.09l.216-.021.013-.309a9.896 9.896 0 00-.599-.074l-7.405-.2c-1.699-.05-3.463-.16-5.13-.206a376.554 376.554 0 01-3.86-.12 60.237 60.237 0 01-1.667-.105.162.162 0 00.057-.094c.029-.05.069-.117-.171-.17a6.116 6.116 0 00-.977-.181 14.72 14.72 0 00-.99-.045 33.043 33.043 0 01-4.78-.455l-.545.177c-2.347-.1-4.729-.197-7.181-.292a17.965 17.965 0 01-1.507-.145c-.536-.066-1.03-.205-1.595-.28a39.076 39.076 0 00-1.653-.128c.146-.045.339-.082.572-.108.23-.01.397-.038.478-.081.081-.044.071-.1-.029-.162-.174-.105-.251-.204.129-.217.351-.024.603-.076.725-.15.121-.074.108-.166-.038-.267a.568.568 0 01-.135-.172l-.158-.02c-.52-.207-1.56-.282-2.307-.452a8.24 8.24 0 00-1.036-.08c-.826-.037-1.63-.053-2.483-.1-.408-.02-.835-.06-1.255-.113-.6-.074-.663-.082-1.011-.352.541.005.97-.036 1.214-.114.244-.079.289-.19.126-.317-.446-.276-.918-.568-2.936-.764.658-.01 1.292-.029 1.898-.058a1.14 1.14 0 00.378-.058c.07-.031.075-.073.014-.119a1.144 1.144 0 00-.357-.138 4.71 4.71 0 00-.598-.107 31.093 31.093 0 00-3.21-.302c-.87-.018-1.656-.008-2.672-.008l-1.2-.149c.02-.033-.156-.079-.112-.097.305-.171.642-.339.988-.523a8.872 8.872 0 01-1.383-.346c-.35-.127-.557-.255-.598-.37-.03-.036-.022-.068.023-.094a.666.666 0 01.237-.06c.316-.022.56-.065.712-.125.153-.06.211-.135.17-.22l-.933-.312a186.284 186.284 0 00-8.224-.475l-2.399-.07c-.289-.084-.199-.12.073-.123.272-.002 1.038.021 1.573.034a8.24 8.24 0 001.191-.032c.318-.036.535-.098.628-.179l-.805-.356c.039-.067.095-.162.532-.155.299-.008.518-.042.624-.096.106-.054.092-.125-.041-.202-.02-.056.01-.107.089-.15.646-.004 1.289-.002 1.875-.02a4.02 4.02 0 00.676-.06c.173-.034.283-.081.323-.138.021-.055-.03-.118-.15-.184a2.534 2.534 0 00-.541-.194c-.918-.077-1.759-.078-2.336-.003-.206.059-.537.09-.949.092-.412.001-.886-.029-1.36-.085a10.636 10.636 0 00-1.525-.081c-.443.013-.758.067-.889.152-.556-.033-1.05-.058-1.536-.095a12.967 12.967 0 00-1.57-.039 40.87 40.87 0 01-2.323-.025 380.854 380.854 0 00-7.009-.181c-.605-.01-1.128.016-1.726-.005-.598-.02-1.071.035-1.819-.076a4.7 4.7 0 00-.418-.032c-.133-.004-.252 0-.347.009-1.313.087-2.853.1-4.529.036-2.295-.015-4.675-.06-6.973-.07a39.05 39.05 0 00-1.905.07 42.03 42.03 0 01-1.416.045c-.377.007-.738-.014-.674.108.063.121-.501.045-.827.023a102.381 102.381 0 01-3.417-.238 40.945 40.945 0 00-3.279-.185c-.741-.009-1.505.022-2.457-.144.036-.06.073-.122.28-.186a26.88 26.88 0 00-2.585-.441 30.295 30.295 0 00-2.719-.216l-1.192-.332c-.293-.04-.593-.068-.88-.084a8.406 8.406 0 00-.793-.01 4.327 4.327 0 01-.623-.035 3.611 3.611 0 01-.576-.114 7.45 7.45 0 00-1.642-.203c-.82-.036-1.694-.12-2.534-.242-.218-.072-.354-.146-.393-.213-.038-.068.024-.125.177-.166.249-.072.388-.164.41-.27.022-.106-.073-.225-.281-.347-.106-.076-.142-.147-.104-.21.037-.063.147-.117.322-.158.653-.187.478-.293-.59-.604a5.83 5.83 0 00-.616-.143 9.398 9.398 0 00-.731-.102 40.187 40.187 0 00-1.73-.112c-.315-.04-.639-.008-1.003-.023-1.818-.076-2.085-.198-2.674-.462l-.429-.191a30.105 30.105 0 00-2.55-.375 29.504 29.504 0 00-2.554-.162 8.282 8.282 0 01-1.04-.075 43.46 43.46 0 00-3.45-.296 20.14 20.14 0 01-2.153-.206 13.638 13.638 0 01-1.86-.398 11.696 11.696 0 00-1.69-.353c-.757-.093-.827-.204-.404-.289a37.069 37.069 0 011.76-.283c.22-.03.355-.08.392-.143.038-.063-.025-.137-.18-.213-.1-.132-.117-.256-.052-.371.035-.048.011-.102-.07-.16a1.541 1.541 0 00-.404-.176 5.839 5.839 0 00-.664-.16 9.892 9.892 0 00-.804-.115 99.849 99.849 0 00-3.496-.391c-.5-.05-.998-.112-1.484-.184a41.913 41.913 0 00-3.13-.435 8.664 8.664 0 01-1.385-.237 50.524 50.524 0 01-3.278-.872 6.564 6.564 0 00-.914-.268 14.103 14.103 0 00-1.206-.216c-.347-.043-.63-.137-.898-.2-.194-.146-.215-.281-.06-.393.155-.111.48-.195.946-.244.442-.06.855-.127 1.236-.2.46-.058 1.008-.093 1.621-.103.727-.032 1.264-.121 1.542-.257-1.99-.247-3.88-.6-5.624-.518l-1.325-.223c.053-.09.1-.167.142-.24.315-.131.414-.297.287-.484-.104-.09-.095-.172.027-.238.123-.065.353-.112.669-.135 1.87-.24 4.034-.403 5.788-.675a19.29 19.29 0 011.904-.069c.688-.016.659-.14-.132-.29a67.06 67.06 0 00-1.356-.229c-2.026-.012-2.852.352-5.164.25l-1.072-.478c-.29-.008-.57-.01-.842-.009l-3.876.195c-.323.01-.575.043-.726.096-.151.053-.196.123-.13.204.026.098-.027.188-.158.267-.085.055-.03.128.15.204.408.17-.115.194-.446.237a2.995 2.995 0 01-.286-.001 4.43 4.43 0 01-.633-.079 2.153 2.153 0 01-.249-.065c-.582-.161-1.09-.332-1.663-.51.407-.17-.071-.451.562-.605.071-.031.1-.069.084-.11-.016-.043-.076-.088-.176-.135-.258-.12-.381-.236-.356-.338.024-.101.196-.185.496-.242l.037-.06c-.794-.206-.583-.39-.895-.607l-.763-.142c-1.898-.343-1.901-.337-3.535-.325-.33-.13.089-.15.403-.165l2.628-.146a142.99 142.99 0 015.406-.203c1.92-.037 4.06-.16 6.044-.248.1-.007.177-.02.224-.04.047-.02.062-.043.045-.07a2.18 2.18 0 00-.302-.083 4.447 4.447 0 00-.391-.063c-.632-.078-1.28-.129-1.953-.194l-1.254-.114-.386-.149c-.25-.09-.422-.201-.757-.267a8.759 8.759 0 00-.865-.107 6.495 6.495 0 00-.79-.014c-.628.03-1.196.073-1.795.112-.6.04-.93.082-1.45.101-1.056.009-2.076.032-3.057.07-.826.088-1.59.193-2.287.313-.435.048-.842.105-1.584.043a4.487 4.487 0 01-.858-.209c-.202-.079-.288-.157-.243-.22.04-.05.152-.09.327-.115.175-.025.407-.035.673-.03.746-.01 1.435-.04 2.054-.092.862-.094 1.912-.135 3.087-.12.399.014.666-.036 1.015-.053.348-.016.644-.057 1.032-.027 1.208.078 1.787-.042 2.51-.12.246-.034.398-.09.44-.16.041-.07-.028-.154-.202-.24a10.334 10.334 0 00-1.22-.515 7.03 7.03 0 00-.918-.233 12.79 12.79 0 00-1.149-.166c-.238-.106-.364-.209-.369-.301-.004-.093.114-.17.343-.228.586-.13 1.105-.263 2.418-.19a22.25 22.25 0 001.718.015c1.157-.023 2.49.029 3.876.152.358.031.71.053 1.046.064 2.395.075 4.677.113 6.966.14 1.212.013 2.434.009 3.7.046 2.968.081 5.67.04 8.534.066 1.5.013 2.844-.041 3.959-.16.217-.041.404-.088.557-.14a24.54 24.54 0 00-2.357-.32 20.77 20.77 0 00-2.25-.084 9.314 9.314 0 01-1.371.02 15.878 15.878 0 01-1.627-.165l1.553-.046c1.03-.022 2.084-.029 3.085-.06 1.59-.054 3.065-.14 4.712-.175 1.33-.032 2.52-.114 3.533-.243a29.122 29.122 0 012.49-.2c.656-.02.656-.02 1.076-.212-.333-.125-.763-.143-1.168-.145-2.43-.079-4.742-.093-6.89-.041a24.365 24.365 0 00-2.837.156c-.194.042-.69.022-1.089.008a78.978 78.978 0 00-3.569.018 66.744 66.744 0 01-5.128-.038c-.35-.097.053-.089.072-.122 1.427-.062 2.825-.134 4.28-.187.397-.019.822-.028 1.27-.028 1.67.033 3.063-.058 3.982-.259.047-.078.651-.069.918-.119.132-.044.22-.095.26-.153-.389-.144-.83-.145-1.168-.145-.983.016-1.929.047-2.832.091-.84.043-1.77.054-2.766.034-.734-.019-1.361.01-2.102.003a27.274 27.274 0 01-1.24-.082c.47-.1 1.108-.162 1.87-.18.578-.06 1.3-.079 1.392-.234-.273-.112-.576-.114-.82-.102-.509 0-1 .006-1.47.021a55.29 55.29 0 01-3.22.001 32.715 32.715 0 00-1.7.01c-1.201.025-2.352.08-3.451.105-2.252.025-4.306.117-6.47.166-.481.012-.913.054-1.547-.019-.635-.072-.663-.082-.738-.127-.178-.075-.232-.148-.15-.204.125-.051.37-.08.691-.081 1.935-.082 3.77-.198 5.493-.347a16.49 16.49 0 001.97-.18c.434-.062.95-.102 1.529-.121a87.295 87.295 0 012.633-.098 6.77 6.77 0 001.06-.097c.277-.053.462-.125.547-.212l-1.117-.287a26.33 26.33 0 00-.522-.035l-9.273.207-.918.006c-1.006-.017-1.252-.06-2.207-.393 2.179-.078 3.892-.307 4.968-.663a17.057 17.057 0 00-.79-.097 65.368 65.368 0 00-4.874-.067c-.884.004-1.792-.007-2.704-.012.267-.164 1.288-.115 1.954-.152 1.591-.058 2.998-.178 4.175-.355.406-.07.914-.113 1.501-.13.587-.007 1.078-.048 1.429-.123.35-.074.552-.178.585-.303.056-.113.175-.218.356-.314-.32-.136-.83-.266-1.432-.366-.602-.1-1.256-.163-1.839-.177a76.48 76.48 0 01-3.837-.272 22.39 22.39 0 00-1.869-.106 13.431 13.431 0 01-1.663-.13 9.693 9.693 0 01-1.467-.305 69.873 69.873 0 01-1.497-.449c-.487-.15-1.053-.339-1.621-.523-.502-.029-.99-.047-1.459-.055-.364.007-.79-.013-1.226-.058a11.094 11.094 0 01-1.234-.193c.217-.08.462-.152.721-.245-.355-.123-.612-.25-.757-.37-.144-.12-.171-.233-.081-.331.052-.09-.334-.239-.467-.357-.172-.101-.204-.196-.092-.272.111-.076.36-.129.716-.152a5.35 5.35 0 001.062-.19c.087-.023.131-.052.129-.087-.003-.035-.052-.074-.143-.114a2.165 2.165 0 00-.378-.114 5.248 5.248 0 00-.523-.086c-.568-.06-1.132-.1-1.66-.116-.908-.029-1.779-.047-2.61-.054-.92-.012-1.943-.08-2.965-.2-.916-.114-1.737-.216-2.184-.432-.448-.217-1.164-.21-1.714-.368.309-.142.858-.24 1.593-.286.48-.016.882-.059 1.178-.125.296-.066.48-.155.54-.26l-1.67-.44c-1.335-.206-2.073-.047-3.515-.13l1.486-.162c.03-.016.04-.035.033-.056-.144-.328-.374-.399-1.893-.58l-.852-.106-1.349-.126c-.216-.067-.365-.137-.433-.203s-.052-.126.046-.173c.198-.08.258-.18.175-.295-.131-.075-.142-.145-.03-.197.11-.052.336-.082.638-.086.24-.006.259-.093.39-.143.13-.068.353-.12.653-.153.3-.033.67-.046 1.086-.037a57.653 57.653 0 003.434-.077l-.19-.023c1.102.05 2.132.057 3.04.018.91-.049 2.078-.017 3.044-.047.787.007 1.386-.06 1.67-.187.275-.122 1.275-.093 2.04-.07.454.015.892.021 1.31.019a13.706 13.706 0 011.99.073c.218.023.433.035.624.035 1.845.032 3.686.069 5.507.085.42-.01.913.013 1.42.063.213.022.42.03.595.026 2.876-.05 6.121.077 8.94.008.343-.016.72-.02 1.125-.01.908.04 1.697.015 2.247-.074a7.731 7.731 0 011.116-.076c.44-.003.928.016 1.436.058.845.054 1.626.06 2.26.017a104.11 104.11 0 013.893-.05c.415.008.78-.008 1.066-.045.286-.037.487-.095.585-.168-.332-.125-.696-.14-1.042-.129-1.338-.028-2.674-.062-3.987-.076a72.44 72.44 0 00-3.368-.035 11.725 11.725 0 01-1.834-.108 15.506 15.506 0 00-2.283-.15c-.5.002-1.028-.007-1.576-.029-.35-.026-.71-.07-1.042-.129a5.255 5.255 0 00-.845-.093 3.134 3.134 0 00-.358.008.862.862 0 00-.23.045c-.507.17-1.642.083-2.614.064-1.456-.287-2.54-.117-3.9-.28a3.91 3.91 0 00-.312-.019 2.203 2.203 0 00-.258.009c-2.633.097-5.703.016-8.467.05a8.925 8.925 0 01-1.022-.05c-2.37-.243-4.65-.313-6.391-.194a8.18 8.18 0 01-.713.002 32.517 32.517 0 00-3.321-.113c-1.555-.007-3.05-.001-4.629-.024-1.089-.032-2.044.002-2.77.099-.023.039-.506-.003-.876-.007-.213-.098-.398-.187-.618-.274a4.278 4.278 0 00-.862-.319 12.771 12.771 0 00-1.293-.276c-.82-.102-.902-.25-.328-.303 1.48-.18 3.342-.253 5.448-.216 1.76.004 3.552.01 5.337.029 1.042.015 2.14.05 3.153.056.341.013.693.032 1.05.058.437.037.862.057 1.252.06a50.823 50.823 0 014.12.08c.54.018 1.059.024 1.548.018a60.323 60.323 0 013.732.05c.82.032 1.615.049 2.377.05.269.003.488-.023.747-.003 2.281.21 3.896.059 5.95.14.997.022 1.95.022 2.846 0 1.747 0 3.543.024 5.38.07 2.43.073 4.682.047 7.002.078.459.006.9.005 1.324-.003a108.16 108.16 0 016.655.036c.535.011 1.016-.003 1.413-.042.396-.04.7-.103.89-.187.081-.057.03-.132-.146-.209-.292-.099-.62-.196-.981-.289L55.74.584a59.183 59.183 0 00-1.61-.027 178.998 178.998 0 01-4.736-.073c-1.6-.043-3.129-.034-4.681-.048a58.366 58.366 0 01-1.405-.03 312.773 312.773 0 00-9.452-.234C32.571.168 31.182.11 29.872.091 28.562.072 26.77.065 25.215.058h-4.813c-.946-.003-1.868.008-2.786.014-1.114-.407-1.499-.502-2.986-.68a13.772 13.772 0 00-1.491-.113C11.662-.69 9.81-.823 8.41-.805c-.845-.01-1.561.036-2.077.13-.447.075-.959.133-1.527.176-1.556-.348-1.693-.574-.522-.662.317-.02.753-.014.982-.058.132-.026.311-.041.525-.044a7.27 7.27 0 01.704.03c.79.056 1.53.07 2.146.038.58-.042 1.29-.04 2.064.005.569.07 1.068-.03 1.56-.058.49-.028.894-.08 1.662-.003.14.015.28.025.408.027.127.002.24-.002.33-.013a25.17 25.17 0 012.87.015c1.631.059 3.161.061 4.538.007.823-.048 1.526-.132 2.08-.25a3 3 0 01.65-.07 53.78 53.78 0 014.414.273 55.963 55.963 0 005.021.276c1.517 0 3.097.03 4.725.089 1.005.032 1.973.044 2.893.036.946-.004 1.956.02 3.006.073 1.046.044 1.966.019 2.652-.071.226-.049.408-.106.543-.172-1.53-.213-3.113-.322-4.43-.304-.5-.014-.914 0-1.441-.083l-.017.028a2.134 2.134 0 01-.444.012 3.953 3.953 0 01-.539-.068l.165-.278c1.003.013 1.977.012 2.916-.003.792-.022 1.868.165 2.553.095 1.337.088 2.189-.034 3.388.002 1.2.035 2.52.15 3.72.185 1.046.02 2.062.024 3.041.013a12.03 12.03 0 011.146.01 12.02 12.02 0 001.576.02c.443-.028.764-.091.926-.181-.153-.085-.36-.194-.597-.307.438-.093 1.102-.132 1.896-.112l1.12-.004c.298.002.525-.023.635-.07.11-.048.095-.114-.042-.185-2.126-.36-2.204-.399-3.764-.168l-2.072-.107.035-.002zm28.017.986l-.158-.02.158.02zm258.133 38.175l-.036.061.039-.067.347.043.023-.038-.373.001zM293.557 9.799c-.49-.067-.986-.128-1.483-.184a3.223 3.223 0 00-.356-.005.97.97 0 00-.237.033c-.04.067.238.113.49.145.319.042.644.069.943.077.299.009.56 0 .757-.028l.285-.024-.399-.014zM40.737 26.071c.324.011.63.013.912.005 1.252-.054 2.45-.132 3.734-.182 1.62-.127 3.48-.179 5.513-.153.794.012 1.465-.03 1.934-.12a7.312 7.312 0 011.066-.082l5.374-.147c.332-.03.619-.073.854-.127l-.978-.121a5.8 5.8 0 00-.98.052c-.267.069-.719.096-1.265.076a59.22 59.22 0 00-1.611-.026c-.985.003-1.976.018-2.964.027-.385.19-1.52.104-2.491.085l-.75.009c-2.454.099-4.798.235-7.02.408-.43.03-.8.076-1.099.14-.113.048-.149.109-.105.177l-.158-.02.034-.001zm109.564 18.287c.596.014 1.215.04 1.851.08.489.041.967.066 1.413.074 2.503.043 5.111.142 7.789.296.35.023.686.034.996.034l2.192-.04c.691-.021.704-.044.201-.339a47.86 47.86 0 00-1.263-.156c-.252-.032-.662-.082-.759-.035-.585.13-1.653.046-2.552.019-2.601-.072-5.283-.177-7.909-.263a42.709 42.709 0 00-1.608-.032 9.098 9.098 0 00-.862.024 1.032 1.032 0 00-.18.019c-.045.01-.074.023-.083.038-.01.016 0 .034.029.053a.542.542 0 00.135.057c.215.066.463.129.737.187l-.127-.016zm19.054-42.841l2.562-.035c.307-.004.568-.043.897-.027 1.754.054 3.379.039 4.804-.044a17.02 17.02 0 011.672-.02 80.01 80.01 0 005.316.008 49.776 49.776 0 002.947-.113c.07-.014.113-.034.128-.058.014-.024-.001-.052-.045-.08-.012-.019-.043-.039-.091-.058a1.291 1.291 0 00-.19-.056 3.382 3.382 0 00-.525-.07 30.625 30.625 0 00-3.168-.088c-.87.034-1.807.044-2.796.03-.947-.004-1.589.108-2.759.023-.494-.028-.931-.02-1.235.026-.613.074-1.468.078-2.413.012a22.883 22.883 0 00-1.601-.044c-1.201.025-2.348.074-3.46.121-.351.011-.727.013-1.121.005l-5.571-.093c-1.338-.028-2.674-.062-3.987-.076a37.603 37.603 0 00-2.965.027c-.949.05-1.983.07-3.085.06-1.71.027-3.411.037-5.273.034a187.39 187.39 0 01-3.643-.027c-.628-.03-1.161-.006-1.496.065-.204.058-.684.01-1.083-.003-2.126-.13-4.12-.161-5.843-.09-.22.011-.461.015-.719.012-1.659-.002-3.378-.018-4.97-.018-.42.005-.814.02-1.179.045.039.04.15.083.311.12.161.039.358.068.552.082 1.506.112 2.96.17 4.302.175 2.232-.014 4.571.018 6.992.095 1.878.079 3.59.062 5.01-.048 1.109-.082 2.553-.051 4.082.088.654.066 1.29.092 1.819.076a18.299 18.299 0 011.719.015 74.21 74.21 0 003.778.086c1.166-.023 2.253-.085 3.451-.104 1.197-.019 3.02-.008 4.497-.04a114.35 114.35 0 014.379-.013zM63.183-1.737c.135.172.614.279 1.129.324 1.775.204 3.53.29 4.971.246.778-.063 1.816-.039 2.908.068 1.272.11 2.462.128 3.358.051a1.72 1.72 0 00.49-.083l.063-.105a2.956 2.956 0 00-.338-.077 4.705 4.705 0 00-.4-.05l-5.882-.197-1.025-.044a70.2 70.2 0 00-5.274-.133zM74.75.985c.918.281.921.276 1.391.34 2.27.267 4.536.41 6.532.415.444-.001.82-.028 1.098-.08.142-.006.233-.028.252-.06.02-.033-.035-.073-.15-.112l-.73-.198a154.216 154.216 0 00-3.912-.204c-1.49-.059-2.81-.061-4.355-.085L74.75.985zm75.44 42.13c.856.386.859.38 2.291.48.998.071 1.966.113 2.875.124 1.111.012 2.25.033 3.358.051.271.013.5.002.644-.028.143-.031.191-.08.133-.138a3.168 3.168 0 00-.646-.173 6.864 6.864 0 00-.855-.097l-.605-.009c-.734-.02-1.496-.048-2.205-.052-.46.016-.993.003-1.558-.036a19.943 19.943 0 01-1.695-.194l-1.737.072zM79.318-1.232c.229.067.487.131.768.19 1.09.166 2.243.26 3.233.264.469.01.897-.027 1.374.027.855.07 1.684.108 2.442.11 0 0 .212-.015.282-.018l.145-.245a16.95 16.95 0 00-1.105-.137c-1.25-.065-2.477-.11-3.7-.16-1.225-.05-1.652-.072-2.453-.094a14.82 14.82 0 00-.986.063zm-27.05 30.433l1.635.501a9.366 9.366 0 001.407.022c.384-.029.637-.093.72-.182.136-.042.149-.105.038-.174-.11-.07-.336-.14-.63-.198-.283-.07-.606-.13-.949-.182-.343-.05-.698-.089-1.045-.113l-1.176.326zm13.61-2.495a30.64 30.64 0 00-2.99-.101c-.565.05-1.332.034-2.142-.045-1.473-.155-2.894-.199-3.961-.12 0 0-.04.067-.22.086-.182.02.536.067.694.086 1.157.048 2.322.085 3.328.102.625 0 1.286.015 1.972.047.943.05 1.838.065 2.649.047 0 0 .314-.014.667-.096l.003-.006zM180.06.61a19.021 19.021 0 00-3.206-.308c-.375-.004-.678.02-.861.071-.184.051-.238.125-.153.21l1.168.145c.985-.004 1.825-.049 3.052-.118zm95.594 7.952a12.49 12.49 0 00-1.302-.168 9.364 9.364 0 00-1.195-.022c-.174.008-.056.095-.085.145-.02.011-.019.025 0 .04a.35.35 0 00.112.047c.054.015.12.03.192.04a11.073 11.073 0 001.439.05c.357-.015.641-.052.826-.11l.013-.022zm6.405 1.086c-.063-.045-.198-.092-.38-.132a4.453 4.453 0 00-.609-.086 10.63 10.63 0 00-1.004.037c-.318.02-.089.15.339.227.182.03.376.055.567.07.191.016.374.022.534.018a2.05 2.05 0 00.387-.037c.095-.022.15-.051.16-.086l.006-.011zM95.946-.755c-.956-.16-1.692-.12-2.5-.184-.81-.065-1.009-.072-.9.031.108.103.662.083 1.01.126.469.057.941.09 1.363.094a5.35 5.35 0 001.027-.067zM295.07 26.344a36.709 36.709 0 00-1.48-.076c-.063.015-.103.034-.116.057-.014.023-.001.049.037.076 0 0 .324.082.513.106.698.08.732-.035 1.046-.164zm71.537 14.921c.343.108.503.182.777.234.126.018.256.03.381.038.125.007.241.008.34.003.12-.03.149-.079.079-.133 0 0-.349-.097-.482-.102a22.158 22.158 0 00-1.095-.04zM79.68-1.67c-.726-.09-1.42-.176-1.923-.07 1.153.112 1.153.112 1.923.07zM91.44-.644c-.733-.193-1.163-.21-1.515-.188-.075.006-.124.018-.14.035-.017.018 0 .04.048.061.048.022.124.044.218.062.093.018.199.031.3.038.383.006.747.003 1.09-.008zm37.737.081c.016-.028.036-.061-.153-.085a1.582 1.582 0 00-.347-.043l-.033.056.533.072zm26.205 46.184l-.422.025.19.024.5.014-.268-.063zM303.868 9.213c-.158-.02-.316-.04-.339 0-.033.006-.054.014-.06.025-.007.01.002.023.024.036l.315.039.06-.1zm-24.584.311c-.104-.002-.197 0-.275.008l-.02.033.316.04-.021-.08zm-214.24 7.954a4.704 4.704 0 00-.378-.047l-.158-.02s.17.057.264.069c.095.012.171-.003.272-.002z" fill="#DF6951"/></g></svg>