<svg width="374" height="276" fill="none" xmlns="http://www.w3.org/2000/svg"><path d="M130.505 368.92c-69.333 0-125.54-56.285-125.54-125.718s56.207-125.718 125.54-125.718 125.54 56.285 125.54 125.718-56.207 125.718-125.54 125.718z" stroke="#6246E5"/><path d="M143.773 373.902c-77.576 0-140.466-62.977-140.466-140.665 0-77.687 62.89-140.664 140.466-140.664 77.576 0 140.465 62.977 140.465 140.664 0 77.688-62.889 140.665-140.465 140.665z" stroke="#6246E5"/><path d="M154.552 378.885C69.649 378.885.82 309.959.82 224.934c0-85.025 68.829-153.95 153.732-153.95 84.904 0 153.733 68.925 153.733 153.95 0 85.025-68.829 153.951-153.733 153.951z" stroke="#6246E5"/><path d="M170.308 382.206c-91.315 0-165.342-74.13-165.342-165.576S78.993 51.054 170.308 51.054c91.314 0 165.341 74.13 165.341 165.576s-74.027 165.576-165.341 165.576z" stroke="#6246E5"/><path d="M185.648 385.528c-97.498 0-176.536-79.15-176.536-176.786 0-97.637 79.038-176.787 176.536-176.787 97.497 0 176.535 79.15 176.535 176.787s-79.038 176.786-176.535 176.786z" stroke="#6246E5"/><path d="M203.061 389.68c-107.114 0-193.949-86.957-193.949-194.224C9.112 88.188 95.947 1.231 203.061 1.231c107.114 0 193.949 86.957 193.949 194.225 0 107.267-86.835 194.224-193.949 194.224z" stroke="#6246E5"/></svg>