<svg width="153" height="166" fill="none" xmlns="http://www.w3.org/2000/svg"><path d="M7.197 12.61h4.362v1.88H7.197v4.942H5.2V14.49H.838v-1.88h4.361V8.045h1.998v4.565z" fill="#FF7152"/><path d="M7.197 47.61h4.362v1.88H7.197v4.942H5.2V49.49H.838v-1.88h4.361v-4.565h1.998v4.565zm0 35h4.362v1.88H7.197v4.942H5.2V84.49H.838v-1.88h4.361v-4.565h1.998v4.565zm35-70h4.362v1.88h-4.362v4.942H40.2V14.49h-4.361v-1.88H40.2V8.045h1.998v4.565zm0 35h4.362v1.88h-4.362v4.942H40.2V49.49h-4.361v-1.88H40.2v-4.565h1.998v4.565zm0 35h4.362v1.88h-4.362v4.942H40.2V84.49h-4.361v-1.88H40.2v-4.565h1.998v4.565zm0 35h4.362v1.88h-4.362v4.942H40.2v-4.942h-4.361v-1.88H40.2v-4.565h1.998v4.565zm35-105h4.362v1.88h-4.362v4.942H75.2V14.49h-4.361v-1.88H75.2V8.045h1.998v4.565zm0 35h4.362v1.88h-4.362v4.942H75.2V49.49h-4.361v-1.88H75.2v-4.565h1.998v4.565z" fill="#E5E5E5"/><path d="M77.197 82.61h4.362v1.88h-4.362v4.942H75.2V84.49h-4.361v-1.88H75.2v-4.565h1.998v4.565z" fill="#6246E5"/><path d="M77.197 117.61h4.362v1.88h-4.362v4.942H75.2v-4.942h-4.361v-1.88H75.2v-4.565h1.998v4.565zm0 35h4.362v1.88h-4.362v4.942H75.2v-4.942h-4.361v-1.88H75.2v-4.565h1.998v4.565zm35-140h4.362v1.88h-4.362v4.942h-1.998V14.49h-4.361v-1.88h4.361V8.045h1.998v4.565zm0 35h4.362v1.88h-4.362v4.942h-1.998V49.49h-4.361v-1.88h4.361v-4.565h1.998v4.565zm0 35h4.362v1.88h-4.362v4.942h-1.998V84.49h-4.361v-1.88h4.361v-4.565h1.998v4.565zm0 35h4.362v1.88h-4.362v4.942h-1.998v-4.942h-4.361v-1.88h4.361v-4.565h1.998v4.565zm0 35h4.362v1.88h-4.362v4.942h-1.998v-4.942h-4.361v-1.88h4.361v-4.565h1.998v4.565zm35-140h4.362v1.88h-4.362v4.942h-1.998V14.49h-4.361v-1.88h4.361V8.045h1.998v4.565zm0 35h4.362v1.88h-4.362v4.942h-1.998V49.49h-4.361v-1.88h4.361v-4.565h1.998v4.565zm0 35h4.362v1.88h-4.362v4.942h-1.998V84.49h-4.361v-1.88h4.361v-4.565h1.998v4.565zm0 35h4.362v1.88h-4.362v4.942h-1.998v-4.942h-4.361v-1.88h4.361v-4.565h1.998v4.565zm0 35h4.362v1.88h-4.362v4.942h-1.998v-4.942h-4.361v-1.88h4.361v-4.565h1.998v4.565z" fill="#E5E5E5"/></svg>