<svg width="149" height="34" fill="none" xmlns="http://www.w3.org/2000/svg"><path d="M13.916 24.464c0 2.552-1.276 4.4-3.96 4.4s-3.916-1.848-3.96-4.4H.936c0 5.544 3.74 8.844 9.02 8.844 5.28 0 9.02-3.3 9.02-8.844V2.42h-5.06v22.044zm11.548-3.696c0 7.48 5.06 12.628 11.352 12.628 4.048 0 6.952-1.936 8.492-4.004V33h5.06V8.756h-5.06v3.52c-1.496-1.98-4.312-3.916-8.404-3.916-6.38 0-11.44 4.928-11.44 12.408zm19.844.088c0 5.236-3.564 8.184-7.348 8.184-3.74 0-7.348-3.036-7.348-8.272 0-5.236 3.608-8.052 7.348-8.052 3.784 0 7.348 2.948 7.348 8.14zm9.976-.088c0 7.48 5.06 12.628 11.44 12.628 3.96 0 6.864-1.848 8.404-4.048V33h5.06V.44h-5.06v11.704c-1.848-2.288-5.192-3.784-8.36-3.784-6.424 0-11.484 4.928-11.484 12.408zm19.844.088c0 5.236-3.564 8.184-7.348 8.184-3.74 0-7.348-3.036-7.348-8.272 0-5.236 3.608-8.052 7.348-8.052 3.784 0 7.348 2.948 7.348 8.14zm34.749 0c0-7.612-5.456-12.496-12.364-12.496s-12.364 4.884-12.364 12.496 5.236 12.54 12.144 12.54c6.952 0 12.584-4.928 12.584-12.54zm-19.624 0c0-5.5 3.388-8.14 7.172-8.14 3.74 0 7.304 2.64 7.304 8.14s-3.696 8.184-7.436 8.184c-3.784 0-7.04-2.684-7.04-8.184zm47.682 0c0-7.612-5.456-12.496-12.364-12.496s-12.364 4.884-12.364 12.496 5.236 12.54 12.144 12.54c6.952 0 12.584-4.928 12.584-12.54zm-19.624 0c0-5.5 3.388-8.14 7.172-8.14 3.74 0 7.304 2.64 7.304 8.14s-3.696 8.184-7.436 8.184c-3.784 0-7.04-2.684-7.04-8.184zm29.775 9.24c0-1.804-1.408-3.212-3.168-3.212a3.174 3.174 0 00-3.212 3.212 3.174 3.174 0 003.212 3.212c1.76 0 3.168-1.408 3.168-3.212z" fill="#181E4B"/></svg>